<svg width="120" height="119" viewBox="0 0 120 119" fill="none" xmlns="http://www.w3.org/2000/svg">
<path fill-rule="evenodd" clip-rule="evenodd" d="M118.841 0.452539C106.17 2.036 74.1809 7.36283 45.4989 29.8438C49.4663 30.1607 53.1057 31.0128 56.4171 32.4C60.7671 34.198 64.4211 36.808 67.3791 40.23L58.3311 48.582C56.1271 46.262 53.7201 44.551 51.1101 43.449C48.5001 42.289 45.658 41.709 42.584 41.709C39.626 41.709 36.9291 42.173 34.493 43.101C32.0571 44.029 29.94 45.363 28.142 47.103C26.402 48.843 25.0391 50.902 24.053 53.28C23.1251 55.658 22.661 58.297 22.661 61.197C22.661 64.039 23.1251 66.649 24.053 69.027C25.0391 71.405 26.402 73.493 28.142 75.291C29.94 77.031 32.0281 78.365 34.406 79.293C36.842 80.221 39.51 80.685 42.41 80.685C45.194 80.685 47.891 80.25 50.501 79.38C51.4695 79.0431 52.4265 78.626 53.3721 78.1287V60.24H66.2481V84.948C62.9421 87.442 59.085 89.356 54.6771 90.69C50.327 92.024 45.977 92.691 41.627 92.691C36.813 92.691 32.3761 91.937 28.316 90.429C24.314 88.863 20.805 86.659 17.789 83.817C15.2789 81.4053 13.2282 78.6386 11.6369 75.5168C8.74739 50.3297 25.1682 22.2002 36.2922 8.64697C5.55155 34.008 0.0351632 88.1615 1.12611 114.991C1.11924 116.156 1.13955 117.202 1.17582 118.118L0.853027 118.44C0.963186 118.446 1.0756 118.452 1.19023 118.457C1.19545 118.571 1.20091 118.684 1.20658 118.794L1.52937 118.471C13.6383 118.951 48.6178 116.638 79.6954 85.5599C79.8094 85.446 79.9229 85.332 80.0362 85.2179V56.325H72.8152V45.885H80.0362V43.797C80.0362 38.519 81.6022 34.314 84.7342 31.182C87.8662 27.992 92.3322 26.397 98.1322 26.397C100.104 26.397 101.989 26.6 103.787 27.006C105.643 27.412 107.209 28.05 108.485 28.92L104.918 38.751C104.164 38.229 103.323 37.823 102.395 37.533C101.467 37.243 100.481 37.098 99.4372 37.098C97.4652 37.098 95.9282 37.678 94.8262 38.838C93.7822 39.94 93.2602 41.622 93.2602 43.884V45.885H105.266V49.1104C115.039 28.6587 118.067 9.83169 119.194 0.806093L119.647 0.353553C119.515 0.369452 119.381 0.385779 119.244 0.402555C119.261 0.265928 119.278 0.131731 119.293 0L118.841 0.452539ZM101.561 56.325C99.2288 60.558 96.5918 64.819 93.6082 69.0383V56.325H101.561Z" fill="#7563E3"/>
</svg>
